<svg width="960" height="720" viewBox="0 0 960 720" fill="none" xmlns="http://www.w3.org/2000/svg">
  <rect width="960" height="720" fill="#F6F8FA"/>
  <rect x="86" y="84" width="788" height="552" rx="28" fill="white" stroke="#E5E7EB"/>
  <circle cx="772" cy="160" r="56" fill="#A3E635"/>
  <rect x="166" y="138" width="226" height="420" rx="38" fill="#111827"/>
  <rect x="184" y="162" width="190" height="372" rx="28" fill="#F9FAFB"/>
  <rect x="215" y="199" width="128" height="20" rx="10" fill="#111827"/>
  <rect x="218" y="250" width="122" height="160" rx="22" fill="#DDEBFF"/>
  <circle cx="279" cy="460" r="28" fill="#2563EB"/>
  <rect x="460" y="176" width="210" height="256" rx="30" fill="#2563EB"/>
  <rect x="492" y="214" width="146" height="20" rx="10" fill="white" fill-opacity="0.82"/>
  <rect x="492" y="256" width="102" height="20" rx="10" fill="white" fill-opacity="0.48"/>
  <rect x="504" y="486" width="240" height="72" rx="20" fill="#111827"/>
  <path d="M554 486C554 452 582 424 616 424H644C678 424 706 452 706 486H554Z" fill="#D1D5DB"/>
  <rect x="704" y="274" width="70" height="220" rx="35" fill="#FEE500" stroke="#111827" stroke-width="12"/>
  <rect x="746" y="334" width="96" height="36" rx="18" fill="#111827"/>
  <path d="M757 352H836" stroke="#111827" stroke-width="22" stroke-linecap="round"/>
  <path d="M338 598C450 627 582 626 704 598" stroke="#D1D5DB" stroke-width="18" stroke-linecap="round"/>
</svg>
